<?xml version="1.0" ?><svg height="32" id="icon" viewBox="0 0 32 32" width="32" xmlns="http://www.w3.org/2000/svg"><defs><style>
      .cls-1 {
        fill: none;
      }
    </style></defs><rect height="2" width="7" x="16" y="28"/><rect height="2" width="14" x="16" y="24"/><rect height="2" width="14" x="16" y="20"/><polygon points="4 20 4 22 8.586 22 2 28.586 3.414 30 10 23.414 10 28 12 28 12 20 4 20"/><path d="M28,8H16L12.5859,4.5859A2.0007,2.0007,0,0,0,11.1716,4H4A2,2,0,0,0,2,6V18H4V6h7.1716l3.4141,3.4141L15.1716,10H28v8h2V10A2,2,0,0,0,28,8Z"/><rect class="cls-1" data-name="&lt;Transparent Rectangle&gt;" height="32" id="_Transparent_Rectangle_" width="32"/></svg>